<svg width="192" height="25" viewBox="0 0 192 25" fill="none" xmlns="http://www.w3.org/2000/svg">
    <path d="M24.214 12.107C24.214 14.5015 23.504 16.8423 22.1736 18.8333C20.8433 20.8243 18.9524 22.3761 16.7402 23.2925C14.5279 24.2088 12.0936 24.4486 9.74504 23.9814C7.39651 23.5143 5.23924 22.3612 3.54604 20.668C1.85284 18.9748 0.699761 16.8175 0.232608 14.469C-0.234544 12.1205 0.00521459 9.6861 0.921567 7.47383C1.83792 5.26156 3.38971 3.37071 5.3807 2.04037C7.37169 0.710038 9.71246 -3.66952e-06 12.107 -3.66952e-06C13.697 -0.000249893 15.2714 0.312716 16.7405 0.921063C18.2095 1.52941 19.5442 2.42122 20.6685 3.54551C21.7928 4.6698 22.6846 6.00455 23.2929 7.47356C23.9013 8.94256 24.2143 10.517 24.214 12.107Z" fill="#51B265"/>
    <path d="M17.1062 11.5933C20.4127 5.83503 15.7941 4.56228 15.7941 4.56228C10.7856 3.06272 7.49971 5.91754 7.49971 5.91754C5.10792 7.60454 5.13229 11.7283 5.13229 11.7283C4.90173 17.018 8.06392 18.6994 8.06392 18.6994C8.06392 18.6994 11.8878 21.3536 16.8363 19.3104C21.7848 17.2673 17.1137 11.5896 17.1137 11.5896L17.1062 11.5933ZM14.8007 17.361C11.1342 17.8033 9.55222 16.7218 9.55222 16.7218C9.55222 16.7218 7.72276 15.6271 7.66653 12.6093C7.6103 9.59144 8.34508 8.71419 8.34508 8.71419C8.80817 7.96896 9.50283 7.39612 10.3226 7.08344C12.1221 6.39177 14.1465 6.72351 14.1465 6.72351C14.1465 6.72351 17.1456 6.94286 15.2224 9.7564C15.2224 9.7564 11.4604 6.97657 9.81465 9.9588C9.81465 9.9588 8.68998 12.2906 10.2683 14.3469C11.8465 16.4032 15.468 13.4378 15.468 13.4378C15.468 13.4378 18.4764 16.9205 14.8082 17.361H14.8007ZM13.6835 11.6852L12.0958 12.6224C11.6085 11.8988 12.0865 10.9598 12.0865 10.9598L13.6835 11.6852Z" fill="white"/>
    <path d="M30.8722 11.9102C30.8684 11.2018 31.0094 10.5002 31.2864 9.84827C31.82 8.57168 32.8338 7.55583 34.1093 7.01973C34.7626 6.7473 35.4634 6.60704 36.1712 6.60704C36.879 6.60704 37.5798 6.7473 38.2331 7.01973C39.5076 7.55451 40.5212 8.56817 41.056 9.84265C41.3284 10.4959 41.4687 11.1967 41.4687 11.9045C41.4687 12.6123 41.3284 13.3131 41.056 13.9664C40.5212 15.2409 39.5076 16.2546 38.2331 16.7893C37.5801 17.063 36.8792 17.2039 36.1712 17.2039C35.4632 17.2039 34.7623 17.063 34.1093 16.7893C32.8349 16.2546 31.8212 15.2409 31.2864 13.9664C31.0099 13.3163 30.8689 12.6166 30.8722 11.9102ZM32.9922 11.9102C32.9892 12.3363 33.0734 12.7586 33.2396 13.151C33.5596 13.9124 34.1652 14.518 34.9266 14.838C35.3203 15.0013 35.7422 15.0854 36.1684 15.0854C36.5946 15.0854 37.0166 15.0013 37.4102 14.838C38.1713 14.5175 38.7767 13.912 39.0972 13.151C39.2617 12.7577 39.3465 12.3356 39.3465 11.9092C39.3465 11.4828 39.2617 11.0607 39.0972 10.6674C38.7746 9.90781 38.1698 9.30305 37.4102 8.98038C37.0166 8.81709 36.5946 8.73304 36.1684 8.73304C35.7422 8.73304 35.3203 8.81709 34.9266 8.98038C34.1662 9.30189 33.5611 9.90703 33.2396 10.6674C33.0733 11.0604 32.9891 11.4834 32.9922 11.9102Z" fill="white"/>
    <path d="M93.0174 16.1482C93.0174 16.4291 92.9058 16.6985 92.7072 16.8971C92.5085 17.0957 92.2392 17.2073 91.9583 17.2073C91.6774 17.2073 91.408 17.0957 91.2094 16.8971C91.0108 16.6985 90.8992 16.4291 90.8992 16.1482V14.0282H85.6002V16.1482C85.6002 16.4291 85.4886 16.6985 85.29 16.8971C85.0914 17.0957 84.822 17.2073 84.5411 17.2073C84.2602 17.2073 83.9909 17.0957 83.7923 16.8971C83.5936 16.6985 83.4821 16.4291 83.4821 16.1482V11.3796C83.4779 10.74 83.6055 10.1064 83.857 9.51834C84.095 8.95183 84.4407 8.43683 84.8748 8.0019C85.31 7.56905 85.8241 7.22357 86.3893 6.98409C86.9796 6.73912 87.6125 6.613 88.2516 6.613C88.8907 6.613 89.5235 6.73912 90.1138 6.98409C90.6788 7.22402 91.1928 7.56944 91.6284 8.0019C92.0625 8.43683 92.4081 8.95183 92.6462 9.51834C92.8977 10.1064 93.0253 10.74 93.0211 11.3796L93.0174 16.1482ZM85.6002 11.9101H90.8992V11.3796C90.9016 11.0272 90.8308 10.678 90.6912 10.3543C90.5591 10.0394 90.3683 9.75249 90.1288 9.50896C89.8855 9.26689 89.5987 9.07292 89.2835 8.93724C88.9584 8.80119 88.6096 8.73113 88.2572 8.73113C87.9048 8.73113 87.556 8.80119 87.231 8.93724C86.9157 9.07292 86.6289 9.26689 86.3856 9.50896C86.1462 9.75249 85.9553 10.0394 85.8232 10.3543C85.6836 10.678 85.6128 11.0272 85.6152 11.3796L85.6002 11.9101Z" fill="#51B265"/>
    <path d="M136.248 11.9102C136.243 11.2017 136.384 10.4999 136.662 9.84827C137.195 8.57168 138.209 7.55583 139.485 7.01973C140.138 6.7473 140.839 6.60704 141.547 6.60704C142.255 6.60704 142.955 6.7473 143.609 7.01973C144.879 7.55727 145.888 8.57051 146.42 9.84265C146.694 10.4956 146.835 11.1965 146.835 11.9045C146.835 12.6125 146.694 13.3134 146.42 13.9664C145.888 15.2386 144.879 16.2518 143.609 16.7893C142.956 17.063 142.255 17.2039 141.547 17.2039C140.839 17.2039 140.138 17.063 139.485 16.7893C138.21 16.2546 137.197 15.2409 136.662 13.9664C136.385 13.3166 136.244 12.6167 136.248 11.9102ZM138.366 11.9102C138.363 12.3365 138.448 12.7587 138.615 13.151C138.935 13.9124 139.541 14.518 140.302 14.838C140.695 15.0014 141.117 15.0855 141.543 15.0855C141.969 15.0855 142.391 15.0014 142.784 14.838C143.545 14.518 144.151 13.9124 144.471 13.151C144.635 12.7577 144.72 12.3356 144.72 11.9092C144.72 11.4828 144.635 11.0607 144.471 10.6674C144.149 9.90703 143.544 9.30189 142.784 8.98038C142.391 8.81704 141.969 8.73295 141.543 8.73295C141.117 8.73295 140.695 8.81704 140.302 8.98038C139.542 9.30189 138.937 9.90703 138.615 10.6674C138.448 11.0603 138.363 11.4832 138.366 11.9102Z" fill="white"/>
    <path d="M159.673 12.9694C159.781 13.2748 159.935 13.5623 160.128 13.8223C160.422 14.2184 160.806 14.5394 161.248 14.7592C161.689 14.9791 162.177 15.0916 162.67 15.0875H165.054C165.328 15.099 165.586 15.2157 165.775 15.4133C165.965 15.6108 166.071 15.8739 166.071 16.1475C166.071 16.4212 165.965 16.6843 165.775 16.8818C165.586 17.0793 165.328 17.196 165.054 17.2075H162.67C161.962 17.2113 161.26 17.0703 160.608 16.7932C159.338 16.2557 158.329 15.2425 157.796 13.9704C157.523 13.3174 157.382 12.6165 157.382 11.9085C157.382 11.2005 157.523 10.4996 157.796 9.8466C158.329 8.57446 159.338 7.56122 160.608 7.02368C161.26 6.74724 161.962 6.60692 162.67 6.61131H165.054C165.335 6.61131 165.604 6.72288 165.803 6.92149C166.002 7.1201 166.113 7.38947 166.113 7.67035C166.113 7.95123 166.002 8.2206 165.803 8.41922C165.604 8.61783 165.335 8.72944 165.054 8.72944H162.67C162.002 8.7257 161.35 8.93443 160.809 9.3255C160.548 9.51242 160.319 9.73879 160.128 9.99652C159.935 10.256 159.782 10.5428 159.673 10.8475H163.465C163.738 10.859 163.997 10.9757 164.186 11.1733C164.375 11.3708 164.481 11.6339 164.481 11.9075C164.481 12.1812 164.375 12.4443 164.186 12.6418C163.997 12.8393 163.738 12.956 163.465 12.9675L159.673 12.9694Z" fill="white"/>
    <path d="M171.047 8.73123C170.62 8.72812 170.197 8.81234 169.804 8.97867C169.044 9.30133 168.44 9.9061 168.117 10.6657C167.952 11.059 167.868 11.4811 167.868 11.9075C167.868 12.3338 167.952 12.756 168.117 13.1493C168.437 13.9103 169.043 14.5158 169.804 14.8363C170.197 15.0026 170.62 15.0868 171.047 15.0837H173.431C173.704 15.0952 173.963 15.212 174.152 15.4095C174.342 15.607 174.447 15.8701 174.447 16.1437C174.447 16.4174 174.342 16.6805 174.152 16.878C173.963 17.0755 173.704 17.1922 173.431 17.2037H171.047C170.338 17.2075 169.637 17.0665 168.985 16.7895C167.71 16.2555 166.697 15.2415 166.164 13.9666C165.89 13.3136 165.749 12.6127 165.749 11.9047C165.749 11.1967 165.89 10.4958 166.164 9.84281C166.697 8.56789 167.71 7.55388 168.985 7.01989C169.637 6.74344 170.338 6.60312 171.047 6.60752H173.431C173.712 6.60752 173.981 6.71909 174.18 6.9177C174.378 7.11631 174.49 7.38568 174.49 7.66656C174.49 7.94744 174.378 8.21681 174.18 8.41542C173.981 8.61403 173.712 8.72565 173.431 8.72565L171.047 8.73123Z" fill="white"/>
    <path d="M178.648 8.73108H175.997C175.716 8.73108 175.447 8.61951 175.248 8.4209C175.05 8.22229 174.938 7.95292 174.938 7.67204C174.938 7.39116 175.05 7.12179 175.248 6.92318C175.447 6.72456 175.716 6.613 175.997 6.613H183.414C183.695 6.613 183.965 6.72456 184.163 6.92318C184.362 7.12179 184.473 7.39116 184.473 7.67204C184.473 7.95292 184.362 8.22229 184.163 8.4209C183.965 8.61951 183.695 8.73108 183.414 8.73108H180.768V16.1483C180.768 16.4291 180.656 16.6985 180.457 16.8971C180.259 17.0957 179.989 17.2074 179.708 17.2074C179.428 17.2074 179.158 17.0957 178.96 16.8971C178.761 16.6985 178.649 16.4291 178.649 16.1483L178.648 8.73108Z" fill="white"/>
    <path d="M51.6727 8.8811C51.2983 7.98767 50.5882 7.27692 49.6951 6.90173C49.2393 6.70848 48.7488 6.61025 48.2537 6.61306H43.487C43.2068 6.6155 42.9389 6.72785 42.7408 6.92594C42.5427 7.12402 42.4303 7.39197 42.4279 7.6721V16.1483C42.4279 16.4292 42.5395 16.6986 42.7381 16.8972C42.9367 17.0958 43.2061 17.2074 43.487 17.2074C43.7678 17.2074 44.0372 17.0958 44.2358 16.8972C44.4344 16.6986 44.546 16.4292 44.546 16.1483V8.73114H48.2537C48.6762 8.73114 49.0815 8.89903 49.3803 9.19783C49.6791 9.49662 49.8469 9.90185 49.8469 10.3244C49.8469 10.747 49.6791 11.1523 49.3803 11.451C49.0815 11.7498 48.6762 11.9177 48.2537 11.9177H45.8638V14.0358H48.2537C48.7488 14.0386 49.2393 13.9404 49.6951 13.7471C50.585 13.372 51.2941 12.6655 51.6727 11.7771C51.8644 11.3197 51.9631 10.8288 51.9631 10.3329C51.9631 9.83695 51.8644 9.34598 51.6727 8.88861V8.8811Z" fill="white"/>
    <path d="M45.2021 13.7134C45.2988 13.8145 45.4153 13.8947 45.5442 13.9488C45.6732 14.003 45.812 14.03 45.9519 14.0283H47.4252V11.9102H45.9519C45.7421 11.9082 45.5365 11.9689 45.3615 12.0846C45.1864 12.2002 45.0499 12.3654 44.9693 12.5591C44.8888 12.7528 44.8679 12.9662 44.9094 13.1718C44.9509 13.3775 45.0528 13.566 45.2021 13.7134Z" fill="white"/>
    <path d="M54.9363 12.9694C55.0446 13.2748 55.1982 13.5623 55.3917 13.8222C55.7773 14.3427 56.3151 14.7305 56.9307 14.9319C57.2543 15.0377 57.593 15.0902 57.9335 15.0875H60.3159C60.5893 15.099 60.8477 15.2157 61.0371 15.4132C61.2265 15.6108 61.3323 15.8738 61.3323 16.1475C61.3323 16.4212 61.2265 16.6842 61.0371 16.8818C60.8477 17.0793 60.5893 17.196 60.3159 17.2075H57.9335C57.2252 17.2113 56.5235 17.0702 55.8716 16.7932C54.597 16.2592 53.5837 15.2453 53.0506 13.9703C52.7769 13.3174 52.636 12.6164 52.636 11.9084C52.636 11.2005 52.7769 10.4995 53.0506 9.84656C53.5829 8.57023 54.5963 7.55477 55.8716 7.01989C56.5236 6.74344 57.2253 6.60312 57.9335 6.60752H60.3159C60.5968 6.60752 60.8662 6.71909 61.0648 6.9177C61.2634 7.11631 61.375 7.38568 61.375 7.66656C61.375 7.94744 61.2634 8.21681 61.0648 8.41542C60.8662 8.61403 60.5968 8.72565 60.3159 8.72565H57.9335C57.5929 8.72352 57.2542 8.77667 56.9307 8.88307C56.6234 8.98509 56.3333 9.13299 56.0703 9.32171C55.811 9.50919 55.5821 9.73555 55.3917 9.99277C55.1986 10.2523 55.0451 10.5391 54.9363 10.8437H58.7282C59.0017 10.8552 59.2601 10.9719 59.4495 11.1695C59.6389 11.367 59.7446 11.6301 59.7446 11.9037C59.7446 12.1774 59.6389 12.4405 59.4495 12.638C59.2601 12.8355 59.0017 12.9522 58.7282 12.9637L54.9363 12.9694Z" fill="white"/>
    <path d="M81.1784 11.5841C83.6039 7.35727 80.2093 6.4238 80.2093 6.4238C76.5335 5.32162 74.1211 7.41909 74.1211 7.41909C72.3648 8.66185 72.3835 11.6872 72.3835 11.6872C72.2148 15.5692 74.5354 16.8026 74.5354 16.8026C75.4956 17.3838 76.5806 17.7278 77.7003 17.806C78.8201 17.8842 79.9423 17.6945 80.9741 17.2525C84.6067 15.7529 81.1784 11.5841 81.1784 11.5841ZM79.4802 15.8204C76.7885 16.1446 75.6225 15.3517 75.6225 15.3517C75.6225 15.3517 74.2786 14.5495 74.2392 12.3339C74.1998 10.1183 74.7359 9.47539 74.7359 9.47539C75.0756 8.92824 75.5852 8.50747 76.1868 8.2776C77.4989 7.76963 78.9984 8.01332 78.9984 8.01332C78.9984 8.01332 81.199 8.1745 79.7876 10.2401C79.7876 10.2401 77.0265 8.19888 75.8175 10.3882C75.8175 10.3882 74.989 12.0996 76.1511 13.6085C77.3133 15.1174 79.9694 12.9412 79.9694 12.9412C79.9694 12.9412 82.1756 15.498 79.4839 15.8204H79.4802ZM78.6591 11.6553L77.4932 12.347C77.1371 11.8184 77.4932 11.1286 77.4932 11.1286L78.6591 11.6553Z" fill="#51B265"/>
    <path d="M107.017 7.60265C107.015 7.36965 106.921 7.14691 106.755 6.98321C106.59 6.8195 106.366 6.72813 106.133 6.72913C105.9 6.72813 105.676 6.8195 105.51 6.98321C105.344 7.14691 105.25 7.36965 105.248 7.60265V16.3469C105.25 16.5797 105.344 16.8023 105.51 16.9657C105.676 17.1291 105.9 17.22 106.133 17.2185C106.366 17.22 106.589 17.1291 106.755 16.9657C106.921 16.8023 107.015 16.5797 107.017 16.3469V7.60265Z" fill="#51B265"/>
    <path d="M113.867 15.8802L110.185 10.4893L108.712 11.4546L112.401 16.8568C112.534 17.049 112.736 17.1815 112.966 17.2257C113.195 17.2699 113.432 17.2222 113.627 17.093C113.723 17.0296 113.805 16.9479 113.87 16.8524C113.934 16.7569 113.978 16.6496 114.001 16.5368C114.023 16.4239 114.023 16.3078 114 16.195C113.977 16.0823 113.932 15.9753 113.867 15.8802Z" fill="#51B265"/>
    <path d="M113.876 7.03473C113.736 6.84799 113.528 6.72377 113.297 6.68872C113.066 6.65367 112.83 6.7106 112.641 6.84729L106.123 11.5971H106.54V13.4715L106.57 13.4528L113.692 8.26062C113.786 8.19326 113.866 8.10773 113.926 8.00911C113.986 7.9105 114.026 7.80079 114.043 7.68648C114.06 7.57218 114.055 7.45558 114.026 7.34363C113.997 7.23168 113.946 7.12666 113.876 7.03473Z" fill="#51B265"/>
    <path d="M124.859 8.86609C124.483 7.97359 123.774 7.26364 122.881 6.88854C122.425 6.69465 121.935 6.59578 121.44 6.598H116.673C116.393 6.60187 116.125 6.7149 115.927 6.91303C115.729 7.11116 115.616 7.37874 115.612 7.65891V16.1333C115.623 16.4067 115.74 16.6651 115.938 16.8545C116.135 17.0439 116.398 17.1497 116.672 17.1497C116.946 17.1497 117.209 17.0439 117.406 16.8545C117.604 16.6651 117.72 16.4067 117.732 16.1333V8.718H121.44C121.862 8.718 122.267 8.88585 122.566 9.18464C122.865 9.48344 123.033 9.88871 123.033 10.3113C123.033 10.7338 122.865 11.1391 122.566 11.4379C122.267 11.7367 121.862 11.9046 121.44 11.9046H119.05V14.0246H121.44C121.935 14.0268 122.425 13.9279 122.881 13.734C123.771 13.3588 124.48 12.6524 124.859 11.764C125.05 11.3064 125.148 10.8155 125.148 10.3197C125.148 9.82388 125.05 9.33297 124.859 8.87543V8.86609Z" fill="white"/>
    <path d="M118.388 13.7003C118.485 13.8014 118.601 13.8815 118.73 13.9357C118.859 13.9899 118.998 14.017 119.138 14.0152H120.613V11.8933H119.138C118.928 11.891 118.722 11.9516 118.546 12.0673C118.371 12.183 118.234 12.3485 118.153 12.5426C118.072 12.7367 118.052 12.9505 118.094 13.1565C118.135 13.3624 118.238 13.5511 118.388 13.6984V13.7003Z" fill="white"/>
    <path d="M148.668 11.9741C148.954 11.97 149.231 12.0788 149.438 12.277C149.645 12.4752 149.765 12.7468 149.774 13.0332C149.79 13.6079 150.03 14.1535 150.443 14.5541C150.855 14.9547 151.408 15.1788 151.983 15.1788C152.558 15.1788 153.11 14.9547 153.522 14.5541C153.935 14.1535 154.175 13.6079 154.192 13.0332V7.73601C154.208 7.45433 154.331 7.18957 154.537 6.99594C154.742 6.80231 155.013 6.69445 155.296 6.69445C155.578 6.69445 155.849 6.80231 156.055 6.99594C156.26 7.18957 156.383 7.45433 156.4 7.73601V13.0332C156.4 15.3687 154.415 17.2713 151.982 17.2713C149.549 17.2713 147.564 15.3687 147.564 13.0332C147.571 12.747 147.692 12.4754 147.898 12.2771C148.105 12.0789 148.381 11.9701 148.668 11.9741Z" fill="white"/>
    <path d="M64.6027 7.5147C64.6014 7.37341 64.5724 7.23377 64.5172 7.10371C64.462 6.97364 64.3817 6.85568 64.2809 6.75664C64.1801 6.6576 64.0608 6.57939 63.9298 6.52645C63.7988 6.47352 63.6587 6.44692 63.5174 6.44815C63.2318 6.44566 62.957 6.55658 62.7532 6.75655C62.5493 6.95652 62.4332 7.22917 62.4302 7.5147V16.2272C62.4314 16.3686 62.4605 16.5084 62.5158 16.6386C62.5712 16.7688 62.6516 16.8868 62.7526 16.9859C62.8536 17.0849 62.9731 17.1631 63.1043 17.2159C63.2356 17.2688 63.3759 17.2952 63.5174 17.2937C63.6587 17.2952 63.799 17.2687 63.9301 17.2159C64.0612 17.1631 64.1806 17.0849 64.2815 16.9858C64.3823 16.8867 64.4626 16.7687 64.5177 16.6385C64.5728 16.5083 64.6017 16.3685 64.6027 16.2272V7.5147Z" fill="white"/>
    <path d="M71.3506 7.5147C71.3494 7.37341 71.3203 7.23377 71.2651 7.10371C71.2099 6.97364 71.1296 6.85568 71.0288 6.75664C70.9281 6.6576 70.8087 6.57939 70.6777 6.52645C70.5467 6.47352 70.4066 6.44692 70.2653 6.44815C69.9797 6.44566 69.7049 6.55658 69.5011 6.75655C69.2972 6.95652 69.1811 7.22917 69.1781 7.5147V16.2272C69.1793 16.3686 69.2084 16.5084 69.2638 16.6386C69.3191 16.7688 69.3995 16.8868 69.5005 16.9859C69.6015 17.0849 69.721 17.1631 69.8522 17.2159C69.9835 17.2688 70.1238 17.2952 70.2653 17.2937C70.4066 17.2952 70.5469 17.2687 70.678 17.2159C70.8092 17.1631 70.9285 17.0849 71.0294 16.9858C71.1302 16.8867 71.2105 16.7687 71.2656 16.6385C71.3207 16.5083 71.3496 16.3685 71.3506 16.2272V7.5147Z" fill="white"/>
    <path d="M64.522 6.94846C64.3472 6.72092 64.0905 6.57061 63.8065 6.52964C63.5225 6.48867 63.2338 6.56026 63.0018 6.72912C62.8866 6.81133 62.7892 6.91592 62.7153 7.0366C62.6415 7.15728 62.5927 7.29158 62.5719 7.43153C62.551 7.57149 62.5586 7.71422 62.5942 7.85118C62.6297 7.98813 62.6925 8.11651 62.7787 8.22867L69.2981 16.8286C69.4731 17.0559 69.73 17.2058 70.0139 17.2464C70.2979 17.287 70.5865 17.2151 70.8182 17.0461C70.9322 16.9641 71.0287 16.86 71.1019 16.7401C71.175 16.6202 71.2234 16.4869 71.2442 16.348C71.265 16.2091 71.2578 16.0675 71.2229 15.9314C71.1881 15.7954 71.1263 15.6677 71.0413 15.5559L64.522 6.94846Z" fill="white"/>
    <path d="M96.6781 7.61786C96.6769 7.47641 96.6478 7.3366 96.5925 7.20641C96.5372 7.07622 96.4567 6.95823 96.3557 6.85916C96.2547 6.7601 96.1352 6.68189 96.004 6.62907C95.8728 6.57625 95.7324 6.54983 95.591 6.55132C95.4497 6.55008 95.3095 6.57669 95.1785 6.62962C95.0475 6.68255 94.9282 6.76076 94.8274 6.8598C94.7266 6.95884 94.6463 7.07675 94.5911 7.20682C94.5359 7.33689 94.5069 7.47657 94.5056 7.61786V16.3321C94.5069 16.4734 94.5359 16.6129 94.5912 16.7429C94.6464 16.8729 94.7267 16.9907 94.8275 17.0896C94.9283 17.1885 95.0476 17.2665 95.1786 17.3192C95.3096 17.3719 95.4498 17.3983 95.591 17.3969C95.7323 17.3986 95.8726 17.3724 96.0038 17.3197C96.1351 17.2671 96.2546 17.1892 96.3556 17.0903C96.4566 16.9913 96.5371 16.8735 96.5924 16.7434C96.6478 16.6133 96.6769 16.4735 96.6781 16.3321V7.61786Z" fill="#51B265"/>
    <path d="M103.426 7.61785C103.423 7.33232 103.307 7.05966 103.103 6.85969C102.899 6.65973 102.624 6.5488 102.339 6.5513C102.198 6.55006 102.057 6.57667 101.926 6.6296C101.795 6.68253 101.676 6.76075 101.575 6.85979C101.475 6.95883 101.394 7.07674 101.339 7.20681C101.284 7.33687 101.255 7.47655 101.254 7.61785V16.3321C101.255 16.4733 101.284 16.6129 101.339 16.7429C101.394 16.8729 101.475 16.9907 101.575 17.0895C101.676 17.1884 101.796 17.2665 101.927 17.3192C102.058 17.3719 102.198 17.3983 102.339 17.3968C102.48 17.3983 102.62 17.3719 102.752 17.3192C102.883 17.2665 103.002 17.1885 103.103 17.0896C103.204 16.9908 103.284 16.873 103.34 16.743C103.395 16.6131 103.425 16.4734 103.426 16.3321V7.61785Z" fill="#51B265"/>
    <path d="M96.6051 7.05182C96.4303 6.82428 96.1736 6.67401 95.8896 6.63304C95.6056 6.59208 95.3169 6.66366 95.0849 6.83252C94.9698 6.91473 94.8723 7.01928 94.7985 7.13996C94.7246 7.26064 94.6758 7.39498 94.655 7.53494C94.6342 7.67489 94.6418 7.81763 94.6773 7.95458C94.7128 8.09154 94.7756 8.21991 94.8619 8.33208L101.383 16.932C101.558 17.1595 101.815 17.3099 102.099 17.3508C102.383 17.3918 102.671 17.3202 102.903 17.1513C103.018 17.0688 103.115 16.9641 103.189 16.8434C103.262 16.7227 103.311 16.5885 103.332 16.4487C103.352 16.3089 103.345 16.1663 103.31 16.0294C103.274 15.8925 103.212 15.7642 103.126 15.6518L96.6051 7.05182Z" fill="#51B265"/>
    <path d="M128.834 12.6429C128.931 12.744 129.047 12.8242 129.176 12.8784C129.305 12.9325 129.444 12.9595 129.584 12.9578H131.057V10.8378H129.584C129.374 10.8364 129.169 10.8975 128.994 11.0134C128.819 11.1292 128.683 11.2946 128.602 11.4883C128.522 11.682 128.501 11.8953 128.542 12.101C128.584 12.3066 128.685 12.4953 128.834 12.6429Z" fill="white"/>
    <path d="M134.261 12.3563C134.652 12.0649 134.972 11.6888 135.198 11.2561C135.437 10.8047 135.559 10.3008 135.554 9.79022C135.557 9.36406 135.473 8.94176 135.307 8.54932C134.985 7.78897 134.38 7.18382 133.62 6.86232C133.227 6.69599 132.804 6.61182 132.377 6.61493H127.078C126.798 6.61786 126.531 6.73042 126.333 6.92845C126.135 7.12648 126.023 7.39417 126.021 7.67397V16.1502C126.032 16.4231 126.149 16.6811 126.346 16.8701C126.543 17.0592 126.806 17.1647 127.079 17.1647C127.352 17.1647 127.614 17.0592 127.812 16.8701C128.009 16.6811 128.125 16.4231 128.137 16.1502V8.73301H132.373C132.654 8.73301 132.923 8.84463 133.122 9.04324C133.321 9.24185 133.432 9.51122 133.432 9.7921C133.432 10.073 133.321 10.3423 133.122 10.541C132.923 10.7396 132.654 10.8511 132.373 10.8511H130.326V12.9711H130.785C131.138 12.9692 131.487 13.0394 131.811 13.1774C132.446 13.4505 132.953 13.957 133.226 14.5925C133.365 14.917 133.435 15.2668 133.432 15.6197V16.1502C133.444 16.4236 133.56 16.682 133.758 16.8714C133.955 17.0608 134.218 17.1665 134.492 17.1665C134.766 17.1665 135.029 17.0608 135.226 16.8714C135.424 16.682 135.541 16.4236 135.552 16.1502V15.6197C135.556 15.0096 135.438 14.405 135.205 13.8409C134.981 13.2941 134.661 12.7915 134.261 12.3563Z" fill="white"/>
    <path d="M188.22 7.13209H187.418V9.66634H186.818V7.13209H186.016V6.6016H188.22V7.13209Z" fill="white"/>
    <path d="M191.487 9.66634H190.888V7.87811L190.303 9.04213H189.896L189.306 7.87811V9.66634H188.708V6.6016H189.304L190.102 8.2605L190.895 6.6016H191.495L191.487 9.66634Z" fill="white"/>
    </svg>
    